/* XPM */
static char *_c806c3fad1a41e48a058547b078cd92DWEncfv0xWCQx9Z9[] = {
/* columns rows colors chars-per-pixel */
"64 64 203 2 ",
"   c #4A1E00",
".  c #4E2508",
"X  c #54270B",
"o  c #5B2A0D",
"O  c #4F2811",
"+  c #542C14",
"@  c #5B2E15",
"#  c #522E1B",
"$  c #5A3116",
"%  c #5D341B",
"&  c #5B351F",
"*  c #622F11",
"=  c #643216",
"-  c #663916",
";  c #643318",
":  c #68371A",
">  c #653A1C",
",  c #69391C",
"<  c #4F3224",
"1  c #4E372E",
"2  c #583723",
"3  c #5D3A26",
"4  c #5C3C2A",
"5  c #4D3D37",
"6  c #553E32",
"7  c #623C23",
"8  c #6B3D21",
"9  c #75421F",
"0  c #7B4C1F",
"q  c #4A413D",
"w  c #5C453A",
"e  c #6D4324",
"r  c #6A452A",
"t  c #754623",
"y  c #764825",
"u  c #7B4A22",
"i  c #734A2B",
"p  c #7B4D2B",
"a  c #7C512F",
"s  c #684735",
"d  c #744D31",
"f  c #7A4F31",
"g  c #765234",
"h  c #7D5234",
"j  c #7A5739",
"k  c #7D583C",
"l  c #4D4947",
"z  c #5A4B44",
"x  c #5C504A",
"c  c #5D5A58",
"v  c #694E43",
"b  c #695248",
"n  c #715545",
"m  c #795946",
"M  c #72594C",
"N  c #7A5C4B",
"B  c #635C5A",
"V  c #735D52",
"C  c #6F635D",
"Z  c #7E6157",
"A  c #756259",
"S  c #7D6359",
"D  c #7F6A5F",
"F  c #626363",
"G  c #696969",
"H  c #786C68",
"J  c #7E726D",
"K  c #727272",
"L  c #7B7673",
"P  c #7D7D7D",
"I  c #824F24",
"U  c #865226",
"Y  c #8A5627",
"T  c #8F5B27",
"R  c #83542A",
"E  c #8A5628",
"W  c #8E5B2A",
"Q  c #925E2C",
"!  c #835636",
"~  c #825936",
"^  c #895D35",
"/  c #855C3C",
"(  c #915F30",
")  c #97612D",
"_  c #9A642E",
"`  c #8A613A",
"'  c #946232",
"]  c #9C6732",
"[  c #9D6A35",
"{  c #95693C",
"}  c #9E6C3A",
"|  c #A06E3C",
" . c #A1713E",
".. c #825F41",
"X. c #885F40",
"o. c #876243",
"O. c #886142",
"+. c #84654A",
"@. c #86694D",
"#. c #8A6C4E",
"$. c #926A44",
"%. c #9D6E40",
"&. c #936E4B",
"*. c #9E7446",
"=. c #96714C",
"-. c #9C754C",
";. c #826856",
":. c #896C51",
">. c #8E7155",
",. c #937453",
"<. c #9A7C59",
"1. c #A57543",
"2. c #A77947",
"3. c #A47848",
"4. c #A57A4D",
"5. c #AC7E4D",
"6. c #A37D54",
"7. c #A97E50",
"8. c #816D62",
"9. c #867167",
"0. c #84746C",
"q. c #8B736C",
"w. c #88786F",
"e. c #8D7771",
"r. c #837973",
"t. c #8B7B71",
"y. c #817C7A",
"u. c #957C72",
"i. c #987E73",
"p. c #AD804F",
"a. c #AD8353",
"s. c #A3835E",
"d. c #AB8558",
"f. c #AE895E",
"g. c #B08655",
"h. c #B38857",
"j. c #B48C5C",
"k. c #8C817C",
"l. c #9A8175",
"z. c #93847D",
"x. c #9F8679",
"c. c #A78A65",
"v. c #AC8C67",
"b. c #B28D61",
"n. c #AE926D",
"m. c #B69164",
"M. c #B99465",
"N. c #B3956D",
"B. c #B9966A",
"V. c #BD9A6C",
"C. c #A78774",
"Z. c #AA8C78",
"A. c #B49972",
"S. c #BD9D71",
"D. c #C09E6F",
"F. c #C19F70",
"G. c #C3A173",
"H. c #C3A57B",
"J. c #C5A97D",
"K. c #C8A97B",
"L. c #828282",
"P. c #898786",
"I. c #8C8B8C",
"U. c #938781",
"Y. c #978A83",
"T. c #918C8A",
"R. c #93908F",
"E. c #99918D",
"W. c #949494",
"Q. c #989797",
"!. c #9C9B9B",
"~. c #A4948D",
"^. c #A09A97",
"/. c #A59E9B",
"(. c #A7A19E",
"). c #A3A3A3",
"_. c #ABA6A4",
"`. c #ABAAAA",
"'. c #B6ABA7",
"]. c #B3B0AE",
"[. c #BCB0AB",
"{. c #B5B5B5",
"}. c #BAB8B6",
"|. c #BCBCBC",
" X c #C7AB80",
".X c #CAAE81",
"XX c #CBAF82",
"oX c #CBB084",
"OX c #CFB588",
"+X c #D0B587",
"@X c #D1B78A",
"#X c #D1B88B",
"$X c #C8BCB7",
"%X c #C3C0BF",
"&X c #C3C3C3",
"*X c #C9C6C5",
"=X c #CBCBCB",
"-X c #D5D5D5",
";X c #DCDDDD",
":X c #E7E6E6",
">X c #EEEEEE",
",X c #F4F4F4",
"<X c #FFFFFF",
/* pixels */
"N Z S S S S Z Z Z Z Z Z Z Z Z Z Z Z Z Z Z Z Z Z Z Z Z Z Z Z Z Z Z Z Z Z Z Z Z Z Z Z Z Z Z Z Z Z Z Z Z Z Z Z S Z Z Z Z S S S S Z ",
": f O.X.X.O.h ; ; : 9 9 9 9 9 9 9 9 9 9 9 9 9 9 9 9 9 9 9 9 9 9 9 9 9 9 9 9 9 9 9 9 9 9 9 9 9 9 9 9 9 9 9 p / i ; ; h O.X./ O.f ",
"8 s..X.X.XoXn.* ; 9 W ) ) ) ) ) ) ) ) ) ) ) ) ) ) ) ) ) ) ) ) ) ) ) ) ) ) ) ) ) ) ) ) ) ) ) ) ) ) ) ) ) ) 5.H.,.* = n..X.X.XoXc.",
", { a.a.j.K.A.* ; 9 Q _ _ _ _ _ _ _ _ _ _ _ _ _ _ _ _ _ _ _ _ _ _ _ _ _ _ _ _ _ _ _ _ _ _ _ _ _ _ _ _ _ _ a.K.,.* ; $.a.a.m..Xv.",
": U ] ] 2.G.A.* ; t Q ] ] ] ] ] ] ] ] ] ] ] ] ] ] ] ] ] ] ] ] ] ] ] ] ] ] ] ] ] ] ] ] ] ] ] ] ] ] ] ] ] ] g.K.,.* ; E ] ] p.K.v.",
": U _ _ 1.G.A.* ; a 7.j.j.j.j.j.j.j.j.j.j.j.j.j.j.j.j.j.j.j.j.j.j.j.j.j.j.j.j.j.j.j.j.j.j.j.j.j.j.j.j.j.j.V.oX,.* ; Y _ _ 5.K.v.",
": U _ _ 1.G.A.* = / S..X.X.X.X.X.X.X.X.X.X.X.X.X.X.X.X.X.X.X.X.X.X.X.X.X.X.X.X.X.X.X.X.X.X.X.X.X.X.X.X.X.XoXoX,.* ; Y _ _ 5.K.v.",
": U _ _ 1.G.A.* ; 8 g k k k k k k k k k k k k k k k k k k k k k k k k k k k k k k k k k k k k k k k k k k k k e ; ; Y _ _ 5.K.v.",
": U _ _ 1.G.A.* ; ; ; ; ; ; ; ; ; ; ; ; ; ; ; ; ; ; ; ; ; ; ; ; ; ; ; ; ; ; ; ; ; ; ; ; ; ; ; ; ; ; ; ; ; ; ; ; ; ; Y _ _ 5.K.v.",
": U _ _ 1.G.A.* ; ; , , , , , , , , , ; ; ; , , , , , , , 8 , ; ; ; , , , , , , , , , ; ; ; , , , , , , , , , ; ; ; Y _ _ 5.K.v.",
": U _ _ 1.G.A.* = / v.v.v.v.v.v.v.v.s.i , / v.v.v.v.v.v.v.v.c.h , h c.v.v.v.v.v.v.v.v.f ; / s.v.v.v.v.v.v.v.6.h ; ; Y _ _ 5.K.v.",
": U _ _ 1.G.A.* * ,.oXoXoXoXoXoXoXoXH.h , &.oXoXoXoXoXoXoXoX X/ 8 /  XoXoXoXoXoXoXoXoX/ ; &.J.oXoXoXoXoXoXoXS.X.= ; Y _ _ 5.K.v.",
": U _ _ 1.G.A.* * ,.K.h.b..X@X@X@X#XJ.h 8 =..Xd.h..X@X@X@X@XoXO., X.J.d.h..X@X@X@X@XOX..; =.G.j.j..X#X@X@X@XH.o.= ; Y _ _ 5.K.v.",
": U _ _ 1.G.A.* * +.b.] 1.F.@X.XB.@XJ.h 8 &.V.[ | V.OXK.m.OXoXO., / V.| | G.OXK.V.oXOX..; &.b. .[ J.#XG.D.oXH.o.= ; Y _ _ 5.K.v.",
": U _ _ 1.G.A.$ s S ;.y { V.+XF.4.K.J.h 8 $.V.] } M.oXG.2.K.oXO., / j.[ [ D.oXB.2..XOX..; &.h.| _ H.#XM.5.J.H.o.= ; Y _ _ 5.K.v.",
": U _ _ 2.V.v.A (.}._.r.k B.oXB. .V.J.h 8 $.V.] } M.oXm. .G..XO., / g.[ [ D.oXm.| G.oX..; &.d.| _ H.@Xb.| H.H.o.= ; Y _ _ 5.K.v.",
": U _ _ 2.j.>.E.;X,X:X`.N &.s.=.R =.<.r ; g =.R R &.s.$.R =.s.d ; i O.R R -.s.$.R -.s.i $ h ` R u <.c.*.] H.H.o.= ; Y _ _ 5.K.v.",
": U _ _ 2.d.@./.>X<X,X*XV A t.w.0.w.t.0.0.0.w.0.0.w.t.0.0.0.t.0.0.0.0.0.0.w.t.0.0.w.t.0.0.0.0.0.0.t.t.N Q S.G.o.= ; Y _ _ 5.K.v.",
": U _ _ 2.d.@.^.>X<X,X&X8.'.:X:X:X:X:X:X:X:X:X:X:X:X:X:X:X:X:X:X:X:X:X:X:X:X:X:X:X:X:X:X:X:X:X:X:X:X{.8.W B.S.o.= ; Y _ _ 5.K.v.",
": U _ _ 2.d.#.k.=X,X;X/.9.$X<X<X<X<X<X<X<X<X<X<X<X<X<X<X<X<X<X<X<X<X<X<X<X<X<X<X<X<X<X<X<X<X<X<X<X<X&X9.Q M.S.o.= ; Y _ _ 5.K.v.",
": U _ _ 2.d.:.r.|.:X&XT.A U.{.{.{.{.{.{.{.{.{.{.{.{.{.{.{.{.{.{.{.{.{.{.{.{.{.{.{.{.{.{.{.{.{.{.{.{.).8.Q M.S.o.= ; Y _ _ 5.K.v.",
": U _ _ 2.d.:.r.|.;X|.T.V b G G G G G G G G G G G G G G G G G G G G G G G G G G G G G G G G G G G G I.D ( M.S.o.= ; Y _ _ 5.K.v.",
": U _ _ 2.d.:.H I.W.I.y.A k.`.`.`.`.`.`.`.`.`.`.`.`.`.`.`.`.`.`.`.`.`.`.`.`.`.`.`.`.`.`.`.`.`.`.`.`.{.u.( M.S.o.= ; Y _ _ 5.K.v.",
": U _ _ 2.d.>.0.K l F y.D D Y.Y.Y.Y.Y.Y.Y.Y.Y.Y.Y.Y.Y.Y.Y.Y.Y.Y.Y.Y.Y.Y.Y.Y.Y.Y.Y.Y.Y.Y.Y.Y.Y.Y.Y.Y.U.N W M.S.o.= ; Y _ _ 5.K.v.",
": U _ _ 2.d.#.U.`.W.)._.n & 3 3 3 3 3 3 3 3 3 3 3 3 3 3 3 3 3 3 3 3 3 3 3 3 3 3 3 3 3 3 3 3 3 3 3 3 & % W M.S.o.= ; Y _ _ 5.K.v.",
": U _ _ 2.d.o.S (.}.[.z.7 i i > , i j % @ > e , , i i , , e j 7 @ % : , , g e , , i j & + > > , , j i u Q j.V.o.= ; Y _ _ 5.K.v.",
": U _ _ 2.m.<.# M t.H 3 i 6.3.W W -.N.p > h ' W ' 7.*.W Q *.A.k > p W W ( f.*.Q W 4.S.j = h W W W N.-.Q _ d.B.o.= ; Y _ _ 5.K.v.",
": U _ _ 1.F.n.. .     $ ` j.a._ _ a.J.h 8 ^ ] _ } j.5.] ] a..XO.8 ! _ _ [ V.2.] ] j.oX..; ^ ] _ _ J.a._ _ a.B.o.= ; Y _ _ 5.K.v.",
": U _ _ 1.G.A.o @ ; u U } j.2._ _ 7.J.h , p _ _ } j.1._ ] a..XO., p ) _ [ V. ._ ] a..X..; R ) _ _ S.5._ _ a.B.o.= ; Y _ _ 5.K.v.",
": U _ _ 1.G.A.* = 9 ) _ 1.h.1._ _ 7.J.h : u _ _ } h.} _ ] a..XO., 9 ) _ [ M.| _ _ 2..X..; u ) _ _ B.2._ _ a.B.o.= ; Y _ _ 5.K.v.",
": U _ _ 1.G.A.* ; u _ _ 1.g.[ _ _ 7.J.h : u _ _ } h.] _ ] a..XO., 9 ) _ ] j.} _ _ 2..Xo.; u ) _ _ b.2._ _ a.B.o.= ; Y _ _ 5.K.v.",
": U _ _ 1.G.A.* ; u _ _ 1.g._ _ _ 7.J.h : u _ _ [ 5.] _ _ 2..XO., 9 ) _ ] g.[ _ _ 2.N.g o - 9 0 U a. ._ _ a.B.o.= ; Y _ _ 5.K.v.",
": U _ _ 1.G.A.* ; u _ _  .5._ _ _ 7.J.h : u _ _ ] 1._ _ _ %. XO., 9 ) _ ] 2.] _ _ ^ m s B L H b r ~ ' _ _ a.B.o.= ; Y _ _ 5.K.v.",
": U _ _ 1.G.A.* ; u _ _ ] | _ _ _ 5.H.h : u _ _ _ [ _ _ _ 1. XX., 9 ) _ _ [ _ _ R 4 B W.*X;X-X|.y.z e E _ 2.m.o.= ; Y _ _ 5.K.v.",
": U _ _ 1.G.A.* ; u _ _ _ _ _ _ _ 2.S.h : u _ _ _ _ _ _ _ 1..XX., 9 ) _ _ _ _ U 4 c I.-X<X<X<X,X{.L z e Q 1.b.o.= ; Y _ _ 5.K.v.",
": U _ _ 1.G.A.* ; u _ _ _ _ _ _ _ 2.B.h : u _ _ _ _ _ _ _ 1..XO., 9 ) _ _ _ ) 8 x I.!.>X<X<X<X<X&X!.L w u  .m.o.= ; Y _ _ 5.K.v.",
": U _ _ 1.G.A.* ; u _ _ _ _ _ _ _ 2.B.h : u _ _ _ _ _ _ _ 1..XO., 9 ) _ _ _ U 4 L.`.).-X<X<X<X>X{.).`.H e { m.o.= ; Y _ _ 5.K.v.",
": U _ _ 1.G.A.* ; u _ _ _ _ _ _ _ 2.B.h : u _ _ _ _ _ _ _ 1..XO., 9 ) _ _ _ u z `.{.`.=X:X:X;X&X).).=XP.3 { m.o.= ; Y _ _ 5.K.v.",
": U _ _ 1.G.A.* ; u _ _ _ _ _ _ _ 2.B.h : u _ _ _ _ _ _ _ 1.J.O., 9 ) _ _ _ u x {.`.{.>X>X{.).!.W.W.-XR.2 { m.o.= ; Y _ _ 5.K.v.",
": U _ _ 1.G.A.* ; u _ _ _ _ _ _ _ 2.B.h : u _ _ _ _ _ _ _ | G./ , 9 ) _ _ _ u z `.`.).-X;X`.W.I.P L.=XI.2 { m.o.= ; Y _ _ 5.K.v.",
": U _ _ 1.G.A.* ; u _ _ _ _ _ _ _ 2.B.h : u _ _ _ _ _ _ _ } V./ , 9 ) _ _ _ R w W.=XI.L.I.P K F c `.|.L > { b.o.= ; Y _ _ 5.K.v.",
": U _ _ 1.G.A.* ; u _ _ _ _ _ _ _ 2.m.h : u _ _ _ _ _ _ _ } V./ , 9 ) _ _ _ Q 7 C |.}.W.G c F P ).*XQ.x u ] b.o.= ; Y _ _ 5.K.v.",
": U _ _ 1.G.A.* ; u _ _ _ _ _ _ _ 1.j.h : u _ _ _ _ _ _ _ } V./ , 9 ) _ _ _ _ y 6 G `.{.).!.!.).|.!.c 3 W _ b.o.= ; Y _ _ 5.K.v.",
": U _ _ 1.G.A.* ; u _ _ _ _ _ _ _  .d.h : u _ _ _ _ _ _ _ } V./ , 9 ) _ _ _ _ Q % 5 l K I.!.!.P.B l < u ) _ b.o.= ; Y _ _ 5.K.v.",
": U _ _ 1.G.A.* ; u _ _ _ _ _ _ _  .d.h : u _ _ _ _ _ _ _ } V./ , 9 ) _ _ _ _ _ , + 1 5 q q q q 5 < + U _ _ b.o.= ; Y _ _ 5.K.v.",
": U _ _ 1.G.A.* ; u _ _ _ _ _ _ _  .d.h : u _ _ _ _ _ _ _ } V./ , 9 ) _ _ _ _ _ u + O + # < < # O O : W _ _ b.o.= ; Y _ _ 5.K.v.",
": U _ _ 1.G.A.* = 9 Q _ _ _ _ _ _  .d.h : u _ _ _ _ _ _ _ } B./ , 9 ) _ _ _ _ _ Q > + O O O O O O + u ) _ _ b.o.= ; Y _ _ 5.K.v.",
": U _ _ 1.G.A.@ s n k U Q _ _ _ _  .d.h : u _ _ _ _ _ _ _ [ j./ , 9 ) _ _ _ _ _ _ U > + O O O O + 9 Q _ _ _ b.o.= ; Y _ _ 5.K.v.",
": U _ _ 2.D.n.v k.!.T.A u _ _ _ _  .d.h : u _ _ _ _ _ _ _ [ h./ , 9 ) _ _ _ _ _ _ ] =.r + + + % 9 Q _ _ _ _ f.o.= ; Y _ _ 5.K.v.",
": U _ _ 2.m.<.y.*X;X-X!.d Y T T T ' -.i ; 9 T T T T T T T ) 4.h ; , T T T T T T T Q f.d X $ - 9 Y Q T ) _ _ a./ = ; Y _ _ 5.K.v.",
": U _ _ 2.d.@./.>X<X,X%XM d m m m N N n v n m m m m m m m m +.n v n m m m m m m m m :.n v n m m m m m h Q _ 4.~ = ; Y _ _ 5.K.v.",
": U _ _ 2.d.@./.>X<X,X*XA t._._._._._._._._._._._._._._._._._._._._._._._._._._._._._._._._._._._._.E.V W _ 4.~ = ; Y _ _ 5.K.v.",
": U _ _ 2.d.@.E.;X<X>X`.8.[.>X>X>X>X>X>X>X>X>X>X>X>X>X>X>X>X>X>X>X>X>X>X>X>X>X>X>X>X>X>X>X>X>X>X>X>X|.9.Q _ 4.~ = ; Y _ _ 5.K.v.",
": U _ _ 2.d.:.r.|.>X=XT.8.'.:X:X:X:X:X:X:X:X:X:X:X:X:X:X:X:X:X:X:X:X:X:X:X:X:X:X:X:X:X:X:X:X:X:X:X:X|.9.Q _ 4.~ = ; Y _ _ 5.K.v.",
": U _ _ 2.d.:.r.}.;X|.T.V C P P P P P P P P P P P P P P P P P P P P P P P P P P P P P P P P P P P P W.8.( _ 4.~ = ; Y _ _ 5.K.v.",
": U _ _ 2.d.:.J ).|.`.P.V C L.L.L.L.L.L.L.L.L.L.L.L.L.L.L.L.L.L.L.L.L.L.L.L.L.L.L.L.L.L.L.L.L.L.L.L.!.9.' _ 4.~ = ; Y _ _ 5.K.v.",
": U _ _ 2.d.:.H K c F L D z.].].].].].].].].].].].].].].].].].].].].].].].].].].].].].].].].].].].].{.u.' _ 3.h ; ; Y _ _ 5.K.v.",
": U _ _ 2.d.>.k.I.G L.E.;.s n n n n n n n n n n n n n n n n n n n n n n n n n n n n n n n n n n n n n r W _ %.p ; ; Y _ _ 5.K.v.",
": U _ _ 2.d.+.z.}.`.{./.3 + $ $ $ $ $ + + + $ $ $ $ $ $ $ $ $ + + + $ $ $ $ $ $ $ $ % + + + $ $ $ $ $ : W _ } p ; ; Y _ _ 5.K.v.",
": U _ _ 2.j.#.4 9.~.z.s $ u u u u u u e $ : u u u u u u u u ! r $ : u u u u u u u u ^ 8 @ , u u u u u U ) _ } p ; ; Y _ _ 5.K.v.",
": U _ _ 2.V.c.. # # # + 9 ) _ _ _ _ ' h : u _ _ _ _ _ _ _ ] 1.! , 9 ) _ _ _ _ _ _ _ 1.y ; u Q _ _ _ _ _ _ _ } p ; ; Y _ _ 5.K.v.",
": U _ _ 1.G.A.o + + ; t Q _ _ _ _ _ ' h : u _ _ _ _ _ _ _ ] 2.! , 9 ) _ _ _ _ _ _ _ 1.y ; u ) _ _ _ _ _ _ _ } p ; ; E _ _ 5.K.v.",
": I ) Q } B.v.= = 9 W ) _ _ _ _ _ _ ) h : u ) _ _ _ _ _ _ ] 1.! , 9 Q _ _ _ _ _ _ _ 1.y ; u Q _ _ _ _ _ _ _ { p ; ; U ) Q 3.S.c.",
"q.u.u.u.i.x.l.e.e.u.C.C.C.C.C.C.C.C.C.l.e.u.C.C.C.C.C.C.C.C.C.l.e.u.C.C.C.C.C.C.C.C.Z.u.e.u.C.C.C.C.C.C.C.C.Z.i.e.e.u.u.u.l.x.l."
};
