/* XPM */
static char * east_xpm[] = {
"64 64 139 2",
"  	c #1A1626",
". 	c #1A1625",
"+ 	c #1E192B",
"@ 	c #2A233C",
"# 	c #2C253F",
"$ 	c #150E19",
"% 	c #140D18",
"& 	c #1A1221",
"* 	c #282038",
"= 	c #2B233D",
"- 	c #2B233C",
"; 	c #2B223C",
"> 	c #2A2139",
", 	c #292139",
"' 	c #271F36",
") 	c #1B1525",
"! 	c #17121F",
"~ 	c #171220",
"{ 	c #181321",
"] 	c #1A1525",
"^ 	c #191524",
"/ 	c #160F1C",
"( 	c #150D19",
"_ 	c #5D7863",
": 	c #5C7A64",
"< 	c #5B7563",
"[ 	c #53635C",
"} 	c #505E5A",
"| 	c #53645C",
"1 	c #5E7A63",
"2 	c #5F8063",
"3 	c #5F8062",
"4 	c #5F8164",
"5 	c #5E7863",
"6 	c #4E6059",
"7 	c #485957",
"8 	c #495A57",
"9 	c #435254",
"0 	c #222136",
"a 	c #191424",
"b 	c #282942",
"c 	c #586E61",
"d 	c #5D7A63",
"e 	c #84A5BC",
"f 	c #84A5BE",
"g 	c #84A8B1",
"h 	c #679975",
"i 	c #5F9064",
"j 	c #669973",
"k 	c #609267",
"l 	c #5D8263",
"m 	c #2F3346",
"n 	c #414C53",
"o 	c #81A8A8",
"p 	c #84A4BF",
"q 	c #85A4C0",
"r 	c #85A5C2",
"s 	c #83A6B7",
"t 	c #6A9A78",
"u 	c #62946A",
"v 	c #5E8562",
"w 	c #2F3446",
"x 	c #171120",
"y 	c #434F54",
"z 	c #82A7AB",
"A 	c #85A4C3",
"B 	c #84A4C2",
"C 	c #83A5B8",
"D 	c #5E8463",
"E 	c #424E54",
"F 	c #82A8A8",
"G 	c #7BA79B",
"H 	c #669871",
"I 	c #609366",
"J 	c #83A7AC",
"K 	c #63946C",
"L 	c #619367",
"M 	c #699C79",
"N 	c #84A6B6",
"O 	c #689A76",
"P 	c #62936B",
"Q 	c #5E8662",
"R 	c #17111F",
"S 	c #140C17",
"T 	c #86A4C5",
"U 	c #699B77",
"V 	c #5D7D62",
"W 	c #5D7F63",
"X 	c #5A7160",
"Y 	c #303445",
"Z 	c #201A2E",
"` 	c #1F182B",
" .	c #3D454F",
"..	c #699977",
"+.	c #74A48E",
"@.	c #74A38B",
"#.	c #6DA080",
"$.	c #5E8764",
"%.	c #5D7C63",
"&.	c #73A38C",
"*.	c #4A5C58",
"=.	c #4A5D57",
"-.	c #485756",
";.	c #312F44",
">.	c #2B243D",
",.	c #303044",
"'.	c #4C6058",
").	c #4D5E59",
"!.	c #4B5D58",
"~.	c #475555",
"{.	c #2C243E",
"].	c #465555",
"^.	c #495956",
"/.	c #495B58",
"(.	c #495B56",
"_.	c #3B454D",
":.	c #3C454E",
"<.	c #404B50",
"[.	c #404B51",
"}.	c #3E464E",
"|.	c #2E2A43",
"1.	c #2C253E",
"2.	c #414B50",
"3.	c #1C192A",
"4.	c #1B1929",
"5.	c #1F1B2E",
"6.	c #2A253E",
"7.	c #2D2741",
"8.	c #2D2641",
"9.	c #2D2640",
"0.	c #191525",
"a.	c #1D192B",
"b.	c #150E1A",
"c.	c #191220",
"d.	c #271E35",
"e.	c #5B7362",
"f.	c #4D5F59",
"g.	c #5F7E63",
"h.	c #609165",
"            . + @ # # # # # # # # # # @ + .                                 . + @ # # # # # # # # # # @ + .                     ",
"$ $ $ $ $ $ % & * = - ; > , , , , , > ' ) ! ~ { ]     ^ / ( $ $ $ $ $ $ $ $ % & * = - ; > , , , , , > ' ) ! ~ { ]     ^ / ( $ $ ",
"_ _ _ _ _ _ : < [ } } | 1 2 3 3 3 3 4 5 6 7 8 9 0 a { b c d _ _ _ _ _ _ _ _ : < [ } } | 1 2 3 3 3 3 4 5 6 7 8 9 0 a { b c d _ _ ",
"e e e e e e f g h i i h g f e e e e f g j i k l m ~ ( n o p e e e e e e e e f g h i i h g f e e e e f g j i k l m ~ ( n o p e e ",
"q q q q q q r s t k k t s r q q q q r s t k u v w x % y z A q q q q q q q q r s t k k t s r q q q q r s t k u v w x % y z A q q ",
"B B B B B B r C t k k t C r B B B B r C t k u D w ~ % E z A q q B B B B B B r C t k k t C r B B B B r C t k u D w ~ % E z A q q ",
"F F F F F F F G H I I H G F F F F F F G H I u D w ~ % E z A q e J F F F F F F G H I I H G F F F F F F G H I u D w ~ % E z A q q ",
"K K K K K K K K L L L L K K K K K K K K L L u D w ~ % E z A B s M u K K K K K K L L L L K K K K K K K K L L u D w ~ % E z A q q ",
"L L L L L L L L L L L L L L L L L L L L L L u D w ~ % E z A B N O k L L L L L L L L L L L L L L L L L L L L u D w ~ % E z A q q ",
"P P P P P P P P P P P P P P P P P P P P P P K Q w R S y J T A C U L P P P P P P P P P P P P P P P P P P P P K Q w R S y J T r r ",
"V V V V V V V V V V V V V V V V V V V V V V W X Y Z `  ...+.@.#.$.%.V V V V V V V V V V V V V V V V V V V V W X Y Z `  ...+.&.&.",
"*.*.*.*.*.*.*.*.*.*.*.*.*.*.*.*.*.*.*.*.*.*.=.-.;.>.>.,.8 '.).).!.*.*.*.*.*.*.*.*.*.*.*.*.*.*.*.*.*.*.*.*.*.=.-.;.>.>.,.8 '.).).",
"8 8 8 8 8 8 8 8 8 8 8 8 8 8 8 8 8 8 8 8 8 8 8 ~.;.{.{.;.].8 ^.^.8 8 8 8 8 8 8 8 8 8 8 8 8 8 8 8 8 8 8 8 8 8 8 ~.;.{.{.;.].8 ^.^.",
"/././././././././././././././././././././.8 (.~.;.{.{.;.~.(.8 /./././././././././././././././././././././.8 (.~.;.{.{.;.~.(.8 8 ",
"_._._._._._._._._._._._._._._._._._._.:.<.[.[.}.|.1.1.|.}.[.[.<.:._._._._._._._._._._._._._._._._._._.:.<.[.[.}.|.1.1.|.}.[.2.2.",
"3.3.3.3.3.3.3.3.3.3.3.3.3.3.3.3.3.3.4.5.6.7.8.9.# # # # 9.8.7.6.5.4.3.3.3.3.3.3.3.3.3.3.3.3.3.3.3.3.4.5.6.7.8.9.# # # # 9.8.8.8.",
"                                    0.a.@ # # # # # # # # # # @ a.0.                                0.a.@ # # # # # # # # # # # ",
"$ $ $ $ $ $ ( b.R ~ ~ { ]     ^ / ( % c.d.> , , , , , > ; - = * & % $ $ $ $ ( b.R ~ ~ { ]     ^ / ( % c.d.> , , , , , > ; - - - ",
"_ _ _ _ _ _ : e.f.7 8 9 0 a { b c d _ d g.3 3 3 3 3 2 1 | } } [ < : _ _ _ _ : e.f.7 8 9 0 a { b c d _ d g.3 3 3 3 3 2 1 | } } } ",
"e e e e e e f g j i k l m ~ ( n o p e e e e e e e e f g h i i h g f e e e e f g j i k l m ~ ( n o p e e e e e e e e f g h i h.h.",
"q q q q q q r s t k u v w x % y z A q q q q q q q q r s t k k t s r q q q q r s t k u v w x % y z A q q q q q q q q r s t k L L ",
"B B B B B B r C t k u D w ~ % E z A q q B B B B B B r C t k k t C r B B B B r C t k u D w ~ % E z A q q B B B B B B r C t k L L ",
"F F F F F F F G H I u D w ~ % E z A q e J F F F F F F G H I I H G F F F F F F G H I u D w ~ % E z A q e J F F F F F F G H I L L ",
"K K K K K K K K L L u D w ~ % E z A B s M u K K K K K K L L L L K K K K K K K K L L u D w ~ % E z A B s M u K K K K K K L L L L ",
"L L L L L L L L L L u D w ~ % E z A B N O k L L L L L L L L L L L L L L L L L L L L u D w ~ % E z A B N O k L L L L L L L L L L ",
"P P P P P P P P P P K Q w R S y J T A C U L P P P P P P P P P P P P P P P P P P P P K Q w R S y J T A C U L P P P P P P P P P P ",
"V V V V V V V V V V W X Y Z `  ...+.@.#.$.%.V V V V V V V V V V V V V V V V V V V V W X Y Z `  ...+.@.#.$.%.V V V V V V V V V V ",
"*.*.*.*.*.*.*.*.*.*.=.-.;.>.>.,.8 '.).).!.*.*.*.*.*.*.*.*.*.*.*.*.*.*.*.*.*.*.*.*.*.=.-.;.>.>.,.8 '.).).!.*.*.*.*.*.*.*.*.*.*.*.",
"8 8 8 8 8 8 8 8 8 8 8 ~.;.{.{.;.].8 ^.^.8 8 8 8 8 8 8 8 8 8 8 8 8 8 8 8 8 8 8 8 8 8 8 ~.;.{.{.;.].8 ^.^.8 8 8 8 8 8 8 8 8 8 8 8 ",
"/././././././././.8 (.~.;.{.{.;.~.(.8 /./././././././././././././././././././././.8 (.~.;.{.{.;.~.(.8 /././././././././././././.",
"_._._._._._._.:.<.[.[.}.|.1.1.|.}.[.[.<.:._._._._._._._._._._._._._._._._._._.:.<.[.[.}.|.1.1.|.}.[.[.<.:._._._._._._._._._._._.",
"3.3.3.3.3.3.4.5.6.7.8.9.# # # # 9.8.7.6.5.4.3.3.3.3.3.3.3.3.3.3.3.3.3.3.3.3.4.5.6.7.8.9.# # # # 9.8.7.6.5.4.3.3.3.3.3.3.3.3.3.3.",
"            0.a.@ # # # # # # # # # # @ a.0.                                0.a.@ # # # # # # # # # # @ a.0.                    ",
"$ $ $ $ $ $ % & * = - ; > , , , , , > ' ) ! ~ { ]     ^ / ( $ $ $ $ $ $ $ $ % & * = - ; > , , , , , > ' ) ! ~ { ]     ^ / ( $ $ ",
"_ _ _ _ _ _ : < [ } } | 1 2 3 3 3 3 4 5 6 7 8 9 0 a { b c d _ _ _ _ _ _ _ _ : < [ } } | 1 2 3 3 3 3 4 5 6 7 8 9 0 a { b c d _ _ ",
"e e e e e e f g h i i h g f e e e e f g j i k l m ~ ( n o p e e e e e e e e f g h i i h g f e e e e f g j i k l m ~ ( n o p e e ",
"q q q q q q r s t k k t s r q q q q r s t k u v w x % y z A q q q q q q q q r s t k k t s r q q q q r s t k u v w x % y z A q q ",
"B B B B B B r C t k k t C r B B B B r C t k u D w ~ % E z A q q B B B B B B r C t k k t C r B B B B r C t k u D w ~ % E z A q q ",
"F F F F F F F G H I I H G F F F F F F G H I u D w ~ % E z A q e J F F F F F F G H I I H G F F F F F F G H I u D w ~ % E z A q q ",
"K K K K K K K K L L L L K K K K K K K K L L u D w ~ % E z A B s M u K K K K K K L L L L K K K K K K K K L L u D w ~ % E z A q q ",
"L L L L L L L L L L L L L L L L L L L L L L u D w ~ % E z A B N O k L L L L L L L L L L L L L L L L L L L L u D w ~ % E z A q q ",
"P P P P P P P P P P P P P P P P P P P P P P K Q w R S y J T A C U L P P P P P P P P P P P P P P P P P P P P K Q w R S y J T r r ",
"V V V V V V V V V V V V V V V V V V V V V V W X Y Z `  ...+.@.#.$.%.V V V V V V V V V V V V V V V V V V V V W X Y Z `  ...+.&.&.",
"*.*.*.*.*.*.*.*.*.*.*.*.*.*.*.*.*.*.*.*.*.*.=.-.;.>.>.,.8 '.).).!.*.*.*.*.*.*.*.*.*.*.*.*.*.*.*.*.*.*.*.*.*.=.-.;.>.>.,.8 '.).).",
"8 8 8 8 8 8 8 8 8 8 8 8 8 8 8 8 8 8 8 8 8 8 8 ~.;.{.{.;.].8 ^.^.8 8 8 8 8 8 8 8 8 8 8 8 8 8 8 8 8 8 8 8 8 8 8 ~.;.{.{.;.].8 ^.^.",
"/././././././././././././././././././././.8 (.~.;.{.{.;.~.(.8 /./././././././././././././././././././././.8 (.~.;.{.{.;.~.(.8 8 ",
"_._._._._._._._._._._._._._._._._._._.:.<.[.[.}.|.1.1.|.}.[.[.<.:._._._._._._._._._._._._._._._._._._.:.<.[.[.}.|.1.1.|.}.[.2.2.",
"3.3.3.3.3.3.3.3.3.3.3.3.3.3.3.3.3.3.4.5.6.7.8.9.# # # # 9.8.7.6.5.4.3.3.3.3.3.3.3.3.3.3.3.3.3.3.3.3.4.5.6.7.8.9.# # # # 9.8.8.8.",
"                                    0.a.@ # # # # # # # # # # @ a.0.                                0.a.@ # # # # # # # # # # # ",
"$ $ $ $ $ $ ( b.R ~ ~ { ]     ^ / ( % c.d.> , , , , , > ; - = * & % $ $ $ $ ( b.R ~ ~ { ]     ^ / ( % c.d.> , , , , , > ; - - - ",
"_ _ _ _ _ _ : e.f.7 8 9 0 a { b c d _ d g.3 3 3 3 3 2 1 | } } [ < : _ _ _ _ : e.f.7 8 9 0 a { b c d _ d g.3 3 3 3 3 2 1 | } } } ",
"e e e e e e f g j i k l m ~ ( n o p e e e e e e e e f g h i i h g f e e e e f g j i k l m ~ ( n o p e e e e e e e e f g h i h.h.",
"q q q q q q r s t k u v w x % y z A q q q q q q q q r s t k k t s r q q q q r s t k u v w x % y z A q q q q q q q q r s t k L L ",
"B B B B B B r C t k u D w ~ % E z A q q B B B B B B r C t k k t C r B B B B r C t k u D w ~ % E z A q q B B B B B B r C t k L L ",
"F F F F F F F G H I u D w ~ % E z A q e J F F F F F F G H I I H G F F F F F F G H I u D w ~ % E z A q e J F F F F F F G H I L L ",
"K K K K K K K K L L u D w ~ % E z A B s M u K K K K K K L L L L K K K K K K K K L L u D w ~ % E z A B s M u K K K K K K L L L L ",
"L L L L L L L L L L u D w ~ % E z A B N O k L L L L L L L L L L L L L L L L L L L L u D w ~ % E z A B N O k L L L L L L L L L L ",
"P P P P P P P P P P K Q w R S y J T A C U L P P P P P P P P P P P P P P P P P P P P K Q w R S y J T A C U L P P P P P P P P P P ",
"V V V V V V V V V V W X Y Z `  ...+.@.#.$.%.V V V V V V V V V V V V V V V V V V V V W X Y Z `  ...+.@.#.$.%.V V V V V V V V V V ",
"*.*.*.*.*.*.*.*.*.*.=.-.;.>.>.,.8 '.).).!.*.*.*.*.*.*.*.*.*.*.*.*.*.*.*.*.*.*.*.*.*.=.-.;.>.>.,.8 '.).).!.*.*.*.*.*.*.*.*.*.*.*.",
"8 8 8 8 8 8 8 8 8 8 8 ~.;.{.{.;.].8 ^.^.8 8 8 8 8 8 8 8 8 8 8 8 8 8 8 8 8 8 8 8 8 8 8 ~.;.{.{.;.].8 ^.^.8 8 8 8 8 8 8 8 8 8 8 8 ",
"/././././././././.8 (.~.;.{.{.;.~.(.8 /./././././././././././././././././././././.8 (.~.;.{.{.;.~.(.8 /././././././././././././.",
"_._._._._._._.:.<.[.[.}.|.1.1.|.}.[.[.<.:._._._._._._._._._._._._._._._._._._.:.<.[.[.}.|.1.1.|.}.[.[.<.:._._._._._._._._._._._.",
"3.3.3.3.3.3.4.5.6.7.8.9.# # # # 9.8.7.6.5.4.3.3.3.3.3.3.3.3.3.3.3.3.3.3.3.3.4.5.6.7.8.9.# # # # 9.8.7.6.5.4.3.3.3.3.3.3.3.3.3.3."};
