/* XPM */
static char * north_xpm[] = {
"64 64 140 2",
"  	c #1A1626",
". 	c #1A1625",
"+ 	c #1E192B",
"@ 	c #2A233C",
"# 	c #2C253F",
"$ 	c #150E19",
"% 	c #140D18",
"& 	c #1A1221",
"* 	c #282038",
"= 	c #2B233D",
"- 	c #2B233C",
"; 	c #2B223C",
"> 	c #2A2139",
", 	c #292139",
"' 	c #271F36",
") 	c #1B1525",
"! 	c #17121F",
"~ 	c #171220",
"{ 	c #181321",
"] 	c #1A1525",
"^ 	c #191524",
"/ 	c #160F1C",
"( 	c #150D19",
"_ 	c #4F5786",
": 	c #4F5887",
"< 	c #4D5583",
"[ 	c #454971",
"} 	c #42466C",
"| 	c #454A72",
"1 	c #515787",
"2 	c #545B8B",
"3 	c #545A8B",
"4 	c #545B8C",
"5 	c #505786",
"6 	c #41476D",
"7 	c #3C4265",
"8 	c #3D4366",
"9 	c #383E5F",
"0 	c #222136",
"a 	c #191424",
"b 	c #282942",
"c 	c #49517D",
"d 	c #505887",
"e 	c #7785C9",
"f 	c #7886CA",
"g 	c #7381C2",
"h 	c #5F6BA1",
"i 	c #596496",
"j 	c #5F6BA0",
"k 	c #5A6598",
"l 	c #535D8C",
"m 	c #2C2E49",
"n 	c #373B5D",
"o 	c #6E7BBB",
"p 	c #7886CB",
"q 	c #7987CC",
"r 	c #7A88CD",
"s 	c #7583C5",
"t 	c #616CA3",
"u 	c #5C679A",
"v 	c #555F8E",
"w 	c #2C2F49",
"x 	c #171120",
"y 	c #383C5F",
"z 	c #707DBD",
"A 	c #7A88CE",
"B 	c #7987CD",
"C 	c #7583C6",
"D 	c #545E8E",
"E 	c #383C5E",
"F 	c #6F7CBB",
"G 	c #6C79B6",
"H 	c #5F6A9F",
"I 	c #5B6698",
"J 	c #717EBE",
"K 	c #5C679B",
"L 	c #5B6699",
"M 	c #616DA4",
"N 	c #7582C5",
"O 	c #606CA2",
"P 	c #5B669A",
"Q 	c #555F8F",
"R 	c #17111F",
"S 	c #140C17",
"T 	c #7B89CF",
"U 	c #616DA3",
"V 	c #515B89",
"W 	c #525C8A",
"X 	c #4C557F",
"Y 	c #2D2E48",
"Z 	c #201A2E",
"` 	c #1F182B",
" .	c #353757",
"..	c #606BA2",
"+.	c #6874B0",
"@.	c #6874AF",
"#.	c #6470A9",
"$.	c #555F90",
"%.	c #515A88",
"&.	c #6773AF",
"*.	c #3E4568",
"=.	c #3E4669",
"-.	c #3C4163",
";.	c #2F2C47",
">.	c #2B243D",
",.	c #2F2C48",
"'.	c #40486C",
").	c #40476B",
"!.	c #3F4669",
"~.	c #3D4466",
"{.	c #3B4061",
"].	c #2C243E",
"^.	c #3A4061",
"/.	c #3D4465",
"(.	c #3D4467",
"_.	c #3D4567",
":.	c #333855",
"<.	c #343856",
"[.	c #373A59",
"}.	c #373B5A",
"|.	c #363856",
"1.	c #2E2944",
"2.	c #2C253E",
"3.	c #373A5A",
"4.	c #1C192A",
"5.	c #1B1929",
"6.	c #1F1B2E",
"7.	c #2A253E",
"8.	c #2D2741",
"9.	c #2D2641",
"0.	c #2D2640",
"a.	c #191525",
"b.	c #1D192B",
"c.	c #150E1A",
"d.	c #191220",
"e.	c #271E35",
"f.	c #4C5482",
"g.	c #40466C",
"h.	c #535A8A",
"i.	c #5A6597",
"            . + @ # # # # # # # # # # @ + .                                 . + @ # # # # # # # # # # @ + .                     ",
"$ $ $ $ $ $ % & * = - ; > , , , , , > ' ) ! ~ { ]     ^ / ( $ $ $ $ $ $ $ $ % & * = - ; > , , , , , > ' ) ! ~ { ]     ^ / ( $ $ ",
"_ _ _ _ _ _ : < [ } } | 1 2 3 3 3 3 4 5 6 7 8 9 0 a { b c d _ _ _ _ _ _ _ _ : < [ } } | 1 2 3 3 3 3 4 5 6 7 8 9 0 a { b c d _ _ ",
"e e e e e e f g h i i h g f e e e e f g j i k l m ~ ( n o p e e e e e e e e f g h i i h g f e e e e f g j i k l m ~ ( n o p e e ",
"q q q q q q r s t k k t s r q q q q r s t k u v w x % y z A q q q q q q q q r s t k k t s r q q q q r s t k u v w x % y z A q q ",
"B B B B B B r C t k k t C r B B B B r C t k u D w ~ % E z A q q B B B B B B r C t k k t C r B B B B r C t k u D w ~ % E z A q q ",
"F F F F F F F G H I I H G F F F F F F G H I u D w ~ % E z A q e J F F F F F F G H I I H G F F F F F F G H I u D w ~ % E z A q q ",
"K K K K K K K K L L L L K K K K K K K K L L u D w ~ % E z A B s M u K K K K K K L L L L K K K K K K K K L L u D w ~ % E z A q q ",
"L L L L L L L L L L L L L L L L L L L L L L u D w ~ % E z A B N O k L L L L L L L L L L L L L L L L L L L L u D w ~ % E z A q q ",
"P P P P P P P P P P P P P P P P P P P P P P K Q w R S y J T A C U L P P P P P P P P P P P P P P P P P P P P K Q w R S y J T r r ",
"V V V V V V V V V V V V V V V V V V V V V V W X Y Z `  ...+.@.#.$.%.V V V V V V V V V V V V V V V V V V V V W X Y Z `  ...+.&.&.",
"*.*.*.*.*.*.*.*.*.*.*.*.*.*.*.*.*.*.*.*.*.*.=.-.;.>.>.,.8 '.).).!.*.*.*.*.*.*.*.*.*.*.*.*.*.*.*.*.*.*.*.*.*.=.-.;.>.>.,.8 '.).).",
"~.~.~.~.~.~.~.~.~.~.~.~.~.~.~.~.~.~.~.~.~.~.~.{.;.].].;.^.~././.~.~.~.~.~.~.~.~.~.~.~.~.~.~.~.~.~.~.~.~.~.~.~.{.;.].].;.^.~././.",
"(.(.(.(.(.(.(.(.(.(.(.(.(.(.(.(.(.(.(.(.(.~._.{.;.].].;.{._.~.(.(.(.(.(.(.(.(.(.(.(.(.(.(.(.(.(.(.(.(.(.(.~._.{.;.].].;.{._.~.~.",
":.:.:.:.:.:.:.:.:.:.:.:.:.:.:.:.:.:.:.<.[.}.}.|.1.2.2.1.|.}.}.[.<.:.:.:.:.:.:.:.:.:.:.:.:.:.:.:.:.:.:.<.[.}.}.|.1.2.2.1.|.}.3.3.",
"4.4.4.4.4.4.4.4.4.4.4.4.4.4.4.4.4.4.5.6.7.8.9.0.# # # # 0.9.8.7.6.5.4.4.4.4.4.4.4.4.4.4.4.4.4.4.4.4.5.6.7.8.9.0.# # # # 0.9.9.9.",
"                                    a.b.@ # # # # # # # # # # @ b.a.                                a.b.@ # # # # # # # # # # # ",
"$ $ $ $ $ $ ( c.R ~ ~ { ]     ^ / ( % d.e.> , , , , , > ; - = * & % $ $ $ $ ( c.R ~ ~ { ]     ^ / ( % d.e.> , , , , , > ; - - - ",
"_ _ _ _ _ _ : f.g.7 8 9 0 a { b c d _ d h.3 3 3 3 3 2 1 | } } [ < : _ _ _ _ : f.g.7 8 9 0 a { b c d _ d h.3 3 3 3 3 2 1 | } } } ",
"e e e e e e f g j i k l m ~ ( n o p e e e e e e e e f g h i i h g f e e e e f g j i k l m ~ ( n o p e e e e e e e e f g h i i.i.",
"q q q q q q r s t k u v w x % y z A q q q q q q q q r s t k k t s r q q q q r s t k u v w x % y z A q q q q q q q q r s t k L L ",
"B B B B B B r C t k u D w ~ % E z A q q B B B B B B r C t k k t C r B B B B r C t k u D w ~ % E z A q q B B B B B B r C t k L L ",
"F F F F F F F G H I u D w ~ % E z A q e J F F F F F F G H I I H G F F F F F F G H I u D w ~ % E z A q e J F F F F F F G H I L L ",
"K K K K K K K K L L u D w ~ % E z A B s M u K K K K K K L L L L K K K K K K K K L L u D w ~ % E z A B s M u K K K K K K L L L L ",
"L L L L L L L L L L u D w ~ % E z A B N O k L L L L L L L L L L L L L L L L L L L L u D w ~ % E z A B N O k L L L L L L L L L L ",
"P P P P P P P P P P K Q w R S y J T A C U L P P P P P P P P P P P P P P P P P P P P K Q w R S y J T A C U L P P P P P P P P P P ",
"V V V V V V V V V V W X Y Z `  ...+.@.#.$.%.V V V V V V V V V V V V V V V V V V V V W X Y Z `  ...+.@.#.$.%.V V V V V V V V V V ",
"*.*.*.*.*.*.*.*.*.*.=.-.;.>.>.,.8 '.).).!.*.*.*.*.*.*.*.*.*.*.*.*.*.*.*.*.*.*.*.*.*.=.-.;.>.>.,.8 '.).).!.*.*.*.*.*.*.*.*.*.*.*.",
"~.~.~.~.~.~.~.~.~.~.~.{.;.].].;.^.~././.~.~.~.~.~.~.~.~.~.~.~.~.~.~.~.~.~.~.~.~.~.~.~.{.;.].].;.^.~././.~.~.~.~.~.~.~.~.~.~.~.~.",
"(.(.(.(.(.(.(.(.(.~._.{.;.].].;.{._.~.(.(.(.(.(.(.(.(.(.(.(.(.(.(.(.(.(.(.(.(.(.(.~._.{.;.].].;.{._.~.(.(.(.(.(.(.(.(.(.(.(.(.(.",
":.:.:.:.:.:.:.<.[.}.}.|.1.2.2.1.|.}.}.[.<.:.:.:.:.:.:.:.:.:.:.:.:.:.:.:.:.:.:.<.[.}.}.|.1.2.2.1.|.}.}.[.<.:.:.:.:.:.:.:.:.:.:.:.",
"4.4.4.4.4.4.5.6.7.8.9.0.# # # # 0.9.8.7.6.5.4.4.4.4.4.4.4.4.4.4.4.4.4.4.4.4.5.6.7.8.9.0.# # # # 0.9.8.7.6.5.4.4.4.4.4.4.4.4.4.4.",
"            a.b.@ # # # # # # # # # # @ b.a.                                a.b.@ # # # # # # # # # # @ b.a.                    ",
"$ $ $ $ $ $ % & * = - ; > , , , , , > ' ) ! ~ { ]     ^ / ( $ $ $ $ $ $ $ $ % & * = - ; > , , , , , > ' ) ! ~ { ]     ^ / ( $ $ ",
"_ _ _ _ _ _ : < [ } } | 1 2 3 3 3 3 4 5 6 7 8 9 0 a { b c d _ _ _ _ _ _ _ _ : < [ } } | 1 2 3 3 3 3 4 5 6 7 8 9 0 a { b c d _ _ ",
"e e e e e e f g h i i h g f e e e e f g j i k l m ~ ( n o p e e e e e e e e f g h i i h g f e e e e f g j i k l m ~ ( n o p e e ",
"q q q q q q r s t k k t s r q q q q r s t k u v w x % y z A q q q q q q q q r s t k k t s r q q q q r s t k u v w x % y z A q q ",
"B B B B B B r C t k k t C r B B B B r C t k u D w ~ % E z A q q B B B B B B r C t k k t C r B B B B r C t k u D w ~ % E z A q q ",
"F F F F F F F G H I I H G F F F F F F G H I u D w ~ % E z A q e J F F F F F F G H I I H G F F F F F F G H I u D w ~ % E z A q q ",
"K K K K K K K K L L L L K K K K K K K K L L u D w ~ % E z A B s M u K K K K K K L L L L K K K K K K K K L L u D w ~ % E z A q q ",
"L L L L L L L L L L L L L L L L L L L L L L u D w ~ % E z A B N O k L L L L L L L L L L L L L L L L L L L L u D w ~ % E z A q q ",
"P P P P P P P P P P P P P P P P P P P P P P K Q w R S y J T A C U L P P P P P P P P P P P P P P P P P P P P K Q w R S y J T r r ",
"V V V V V V V V V V V V V V V V V V V V V V W X Y Z `  ...+.@.#.$.%.V V V V V V V V V V V V V V V V V V V V W X Y Z `  ...+.&.&.",
"*.*.*.*.*.*.*.*.*.*.*.*.*.*.*.*.*.*.*.*.*.*.=.-.;.>.>.,.8 '.).).!.*.*.*.*.*.*.*.*.*.*.*.*.*.*.*.*.*.*.*.*.*.=.-.;.>.>.,.8 '.).).",
"~.~.~.~.~.~.~.~.~.~.~.~.~.~.~.~.~.~.~.~.~.~.~.{.;.].].;.^.~././.~.~.~.~.~.~.~.~.~.~.~.~.~.~.~.~.~.~.~.~.~.~.~.{.;.].].;.^.~././.",
"(.(.(.(.(.(.(.(.(.(.(.(.(.(.(.(.(.(.(.(.(.~._.{.;.].].;.{._.~.(.(.(.(.(.(.(.(.(.(.(.(.(.(.(.(.(.(.(.(.(.(.~._.{.;.].].;.{._.~.~.",
":.:.:.:.:.:.:.:.:.:.:.:.:.:.:.:.:.:.:.<.[.}.}.|.1.2.2.1.|.}.}.[.<.:.:.:.:.:.:.:.:.:.:.:.:.:.:.:.:.:.:.<.[.}.}.|.1.2.2.1.|.}.3.3.",
"4.4.4.4.4.4.4.4.4.4.4.4.4.4.4.4.4.4.5.6.7.8.9.0.# # # # 0.9.8.7.6.5.4.4.4.4.4.4.4.4.4.4.4.4.4.4.4.4.5.6.7.8.9.0.# # # # 0.9.9.9.",
"                                    a.b.@ # # # # # # # # # # @ b.a.                                a.b.@ # # # # # # # # # # # ",
"$ $ $ $ $ $ ( c.R ~ ~ { ]     ^ / ( % d.e.> , , , , , > ; - = * & % $ $ $ $ ( c.R ~ ~ { ]     ^ / ( % d.e.> , , , , , > ; - - - ",
"_ _ _ _ _ _ : f.g.7 8 9 0 a { b c d _ d h.3 3 3 3 3 2 1 | } } [ < : _ _ _ _ : f.g.7 8 9 0 a { b c d _ d h.3 3 3 3 3 2 1 | } } } ",
"e e e e e e f g j i k l m ~ ( n o p e e e e e e e e f g h i i h g f e e e e f g j i k l m ~ ( n o p e e e e e e e e f g h i i.i.",
"q q q q q q r s t k u v w x % y z A q q q q q q q q r s t k k t s r q q q q r s t k u v w x % y z A q q q q q q q q r s t k L L ",
"B B B B B B r C t k u D w ~ % E z A q q B B B B B B r C t k k t C r B B B B r C t k u D w ~ % E z A q q B B B B B B r C t k L L ",
"F F F F F F F G H I u D w ~ % E z A q e J F F F F F F G H I I H G F F F F F F G H I u D w ~ % E z A q e J F F F F F F G H I L L ",
"K K K K K K K K L L u D w ~ % E z A B s M u K K K K K K L L L L K K K K K K K K L L u D w ~ % E z A B s M u K K K K K K L L L L ",
"L L L L L L L L L L u D w ~ % E z A B N O k L L L L L L L L L L L L L L L L L L L L u D w ~ % E z A B N O k L L L L L L L L L L ",
"P P P P P P P P P P K Q w R S y J T A C U L P P P P P P P P P P P P P P P P P P P P K Q w R S y J T A C U L P P P P P P P P P P ",
"V V V V V V V V V V W X Y Z `  ...+.@.#.$.%.V V V V V V V V V V V V V V V V V V V V W X Y Z `  ...+.@.#.$.%.V V V V V V V V V V ",
"*.*.*.*.*.*.*.*.*.*.=.-.;.>.>.,.8 '.).).!.*.*.*.*.*.*.*.*.*.*.*.*.*.*.*.*.*.*.*.*.*.=.-.;.>.>.,.8 '.).).!.*.*.*.*.*.*.*.*.*.*.*.",
"~.~.~.~.~.~.~.~.~.~.~.{.;.].].;.^.~././.~.~.~.~.~.~.~.~.~.~.~.~.~.~.~.~.~.~.~.~.~.~.~.{.;.].].;.^.~././.~.~.~.~.~.~.~.~.~.~.~.~.",
"(.(.(.(.(.(.(.(.(.~._.{.;.].].;.{._.~.(.(.(.(.(.(.(.(.(.(.(.(.(.(.(.(.(.(.(.(.(.(.~._.{.;.].].;.{._.~.(.(.(.(.(.(.(.(.(.(.(.(.(.",
":.:.:.:.:.:.:.<.[.}.}.|.1.2.2.1.|.}.}.[.<.:.:.:.:.:.:.:.:.:.:.:.:.:.:.:.:.:.:.<.[.}.}.|.1.2.2.1.|.}.}.[.<.:.:.:.:.:.:.:.:.:.:.:.",
"4.4.4.4.4.4.5.6.7.8.9.0.# # # # 0.9.8.7.6.5.4.4.4.4.4.4.4.4.4.4.4.4.4.4.4.4.5.6.7.8.9.0.# # # # 0.9.8.7.6.5.4.4.4.4.4.4.4.4.4.4."};
