/* XPM */
static char * west_xpm[] = {
"64 64 138 2",
"  	c #1A1626",
". 	c #1A1625",
"+ 	c #1E192B",
"@ 	c #2A233C",
"# 	c #2C253F",
"$ 	c #150E19",
"% 	c #140D18",
"& 	c #1A1221",
"* 	c #282038",
"= 	c #2B233D",
"- 	c #2B233C",
"; 	c #2B223C",
"> 	c #2A2139",
", 	c #292139",
"' 	c #271F36",
") 	c #1B1525",
"! 	c #17121F",
"~ 	c #171220",
"{ 	c #181321",
"] 	c #1A1525",
"^ 	c #191524",
"/ 	c #160F1C",
"( 	c #150D19",
"_ 	c #C99C0C",
": 	c #C9A50D",
"< 	c #B68F1A",
"[ 	c #7F6437",
"} 	c #725B3C",
"| 	c #816736",
"1 	c #D6A502",
"2 	c #DFB500",
"3 	c #E0B800",
"4 	c #CD9A09",
"5 	c #72633C",
"6 	c #5D5844",
"7 	c #605943",
"8 	c #514F46",
"9 	c #222136",
"0 	c #191424",
"a 	c #282942",
"b 	c #9C7A2A",
"c 	c #D1A606",
"d 	c #9B9DA5",
"e 	c #9B9DA7",
"f 	c #9D9E97",
"g 	c #E7F40C",
"h 	c #E4EF00",
"i 	c #EAFC03",
"j 	c #E3F200",
"k 	c #DFC500",
"l 	c #313144",
"m 	c #4D4747",
"n 	c #A0A089",
"o 	c #9B9DA8",
"p 	c #9B9DAA",
"q 	c #9B9EAC",
"r 	c #9B9D9F",
"s 	c #E5E91B",
"t 	c #E7F600",
"u 	c #E3CB00",
"v 	c #313244",
"w 	c #171120",
"x 	c #514A46",
"y 	c #9F9E8E",
"z 	c #9B9EAD",
"A 	c #9B9DAB",
"B 	c #9B9CA0",
"C 	c #E2C700",
"D 	c #4F4947",
"E 	c #A1A089",
"F 	c #A6AA78",
"G 	c #F0FE00",
"H 	c #E0F300",
"I 	c #9F9E90",
"J 	c #EDF700",
"K 	c #E5F400",
"L 	c #D8E71E",
"M 	c #9C9D9E",
"N 	c #E4F012",
"O 	c #EBF500",
"P 	c #E4CE00",
"Q 	c #17111F",
"R 	c #140C17",
"S 	c #9C9FAF",
"T 	c #E1ED17",
"U 	c #DAB400",
"V 	c #DCBB00",
"W 	c #AE861D",
"X 	c #323243",
"Y 	c #201A2E",
"Z 	c #1F182B",
"` 	c #494349",
" .	c #E8EC16",
"..	c #B5BB5D",
"+.	c #BDC057",
"@.	c #C9D637",
"#.	c #E5D200",
"$.	c #D9B100",
"%.	c #BABF57",
"&.	c #645C42",
"*.	c #676040",
"=.	c #5C5443",
"-.	c #342E45",
";.	c #2B243D",
">.	c #342F45",
",.	c #6E663E",
"'.	c #6C5E3F",
").	c #685E40",
"!.	c #585144",
"~.	c #2C243E",
"{.	c #575244",
"].	c #605842",
"^.	c #615B43",
"/.	c #635D41",
"(.	c #434246",
"_.	c #464248",
":.	c #4B4745",
"<.	c #4B4646",
"[.	c #494346",
"}.	c #2F2A43",
"|.	c #2C253E",
"1.	c #4D4644",
"2.	c #1C192A",
"3.	c #1B1929",
"4.	c #1F1B2E",
"5.	c #2A253E",
"6.	c #2D2741",
"7.	c #2D2641",
"8.	c #2D2640",
"9.	c #191525",
"0.	c #1D192B",
"a.	c #150E1A",
"b.	c #191220",
"c.	c #271E35",
"d.	c #B2891C",
"e.	c #6E613E",
"f.	c #DDAF00",
"g.	c #E7F100",
"            . + @ # # # # # # # # # # @ + .                                 . + @ # # # # # # # # # # @ + .                     ",
"$ $ $ $ $ $ % & * = - ; > , , , , , > ' ) ! ~ { ]     ^ / ( $ $ $ $ $ $ $ $ % & * = - ; > , , , , , > ' ) ! ~ { ]     ^ / ( $ $ ",
"_ _ _ _ _ _ : < [ } } | 1 2 2 2 2 2 3 4 5 6 7 8 9 0 { a b c _ _ _ _ _ _ _ _ : < [ } } | 1 2 2 2 2 2 3 4 5 6 7 8 9 0 { a b c _ _ ",
"d d d d d d e f g h h g f e d d d d e f i h j k l ~ ( m n o d d d d d d d d e f g h h g f e d d d d e f i h j k l ~ ( m n o d d ",
"p p p p p p q r s j j s r q p p p p q r s j t u v w % x y z p p p p p p p p q r s j j s r q p p p p q r s j t u v w % x y z p p ",
"A A A A A A q B s j j s B q A A A A q B s j t C v ~ % D y z p p A A A A A A q B s j j s B q A A A A q B s j t C v ~ % D y z p p ",
"E E E E E E E F G H H G F E E E E E E F G H t C v ~ % D y z p d I E E E E E E F G H H G F E E E E E E F G H t C v ~ % D y z p p ",
"J J J J J J J J K K K K J J J J J J J J K K t C v ~ % D y z A r L t J J J J J J K K K K J J J J J J J J K K t C v ~ % D y z p p ",
"K K K K K K K K K K K K K K K K K K K K K K t C v ~ % D y z A M N j K K K K K K K K K K K K K K K K K K K K t C v ~ % D y z p p ",
"O O O O O O O O O O O O O O O O O O O O O O J P v Q R x I S z B T K O O O O O O O O O O O O O O O O O O O O J P v Q R x I S q q ",
"U U U U U U U U U U U U U U U U U U U U U U V W X Y Z `  ...+.@.#.$.U U U U U U U U U U U U U U U U U U U U V W X Y Z `  ...%.%.",
"&.&.&.&.&.&.&.&.&.&.&.&.&.&.&.&.&.&.&.&.&.&.*.=.-.;.;.>.7 ,.'.'.).&.&.&.&.&.&.&.&.&.&.&.&.&.&.&.&.&.&.&.&.&.*.=.-.;.;.>.7 ,.'.'.",
"7 7 7 7 7 7 7 7 7 7 7 7 7 7 7 7 7 7 7 7 7 7 7 !.-.~.~.-.{.7 ].].7 7 7 7 7 7 7 7 7 7 7 7 7 7 7 7 7 7 7 7 7 7 7 !.-.~.~.-.{.7 ].].",
"^.^.^.^.^.^.^.^.^.^.^.^.^.^.^.^.^.^.^.^.^.7 /.!.-.~.~.-.!./.7 ^.^.^.^.^.^.^.^.^.^.^.^.^.^.^.^.^.^.^.^.^.^.7 /.!.-.~.~.-.!./.7 7 ",
"(.(.(.(.(.(.(.(.(.(.(.(.(.(.(.(.(.(.(._.:.<.<.[.}.|.|.}.[.<.<.:._.(.(.(.(.(.(.(.(.(.(.(.(.(.(.(.(.(.(._.:.<.<.[.}.|.|.}.[.<.1.1.",
"2.2.2.2.2.2.2.2.2.2.2.2.2.2.2.2.2.2.3.4.5.6.7.8.# # # # 8.7.6.5.4.3.2.2.2.2.2.2.2.2.2.2.2.2.2.2.2.2.3.4.5.6.7.8.# # # # 8.7.7.7.",
"                                    9.0.@ # # # # # # # # # # @ 0.9.                                9.0.@ # # # # # # # # # # # ",
"$ $ $ $ $ $ ( a.Q ~ ~ { ]     ^ / ( % b.c.> , , , , , > ; - = * & % $ $ $ $ ( a.Q ~ ~ { ]     ^ / ( % b.c.> , , , , , > ; - - - ",
"_ _ _ _ _ _ : d.e.6 7 8 9 0 { a b c _ c f.2 2 2 2 2 2 1 | } } [ < : _ _ _ _ : d.e.6 7 8 9 0 { a b c _ c f.2 2 2 2 2 2 1 | } } } ",
"d d d d d d e f i h j k l ~ ( m n o d d d d d d d d e f g h h g f e d d d d e f i h j k l ~ ( m n o d d d d d d d d e f g h g.g.",
"p p p p p p q r s j t u v w % x y z p p p p p p p p q r s j j s r q p p p p q r s j t u v w % x y z p p p p p p p p q r s j K K ",
"A A A A A A q B s j t C v ~ % D y z p p A A A A A A q B s j j s B q A A A A q B s j t C v ~ % D y z p p A A A A A A q B s j K K ",
"E E E E E E E F G H t C v ~ % D y z p d I E E E E E E F G H H G F E E E E E E F G H t C v ~ % D y z p d I E E E E E E F G H K K ",
"J J J J J J J J K K t C v ~ % D y z A r L t J J J J J J K K K K J J J J J J J J K K t C v ~ % D y z A r L t J J J J J J K K K K ",
"K K K K K K K K K K t C v ~ % D y z A M N j K K K K K K K K K K K K K K K K K K K K t C v ~ % D y z A M N j K K K K K K K K K K ",
"O O O O O O O O O O J P v Q R x I S z B T K O O O O O O O O O O O O O O O O O O O O J P v Q R x I S z B T K O O O O O O O O O O ",
"U U U U U U U U U U V W X Y Z `  ...+.@.#.$.U U U U U U U U U U U U U U U U U U U U V W X Y Z `  ...+.@.#.$.U U U U U U U U U U ",
"&.&.&.&.&.&.&.&.&.&.*.=.-.;.;.>.7 ,.'.'.).&.&.&.&.&.&.&.&.&.&.&.&.&.&.&.&.&.&.&.&.&.*.=.-.;.;.>.7 ,.'.'.).&.&.&.&.&.&.&.&.&.&.&.",
"7 7 7 7 7 7 7 7 7 7 7 !.-.~.~.-.{.7 ].].7 7 7 7 7 7 7 7 7 7 7 7 7 7 7 7 7 7 7 7 7 7 7 !.-.~.~.-.{.7 ].].7 7 7 7 7 7 7 7 7 7 7 7 ",
"^.^.^.^.^.^.^.^.^.7 /.!.-.~.~.-.!./.7 ^.^.^.^.^.^.^.^.^.^.^.^.^.^.^.^.^.^.^.^.^.^.7 /.!.-.~.~.-.!./.7 ^.^.^.^.^.^.^.^.^.^.^.^.^.",
"(.(.(.(.(.(.(._.:.<.<.[.}.|.|.}.[.<.<.:._.(.(.(.(.(.(.(.(.(.(.(.(.(.(.(.(.(.(._.:.<.<.[.}.|.|.}.[.<.<.:._.(.(.(.(.(.(.(.(.(.(.(.",
"2.2.2.2.2.2.3.4.5.6.7.8.# # # # 8.7.6.5.4.3.2.2.2.2.2.2.2.2.2.2.2.2.2.2.2.2.3.4.5.6.7.8.# # # # 8.7.6.5.4.3.2.2.2.2.2.2.2.2.2.2.",
"            9.0.@ # # # # # # # # # # @ 0.9.                                9.0.@ # # # # # # # # # # @ 0.9.                    ",
"$ $ $ $ $ $ % & * = - ; > , , , , , > ' ) ! ~ { ]     ^ / ( $ $ $ $ $ $ $ $ % & * = - ; > , , , , , > ' ) ! ~ { ]     ^ / ( $ $ ",
"_ _ _ _ _ _ : < [ } } | 1 2 2 2 2 2 3 4 5 6 7 8 9 0 { a b c _ _ _ _ _ _ _ _ : < [ } } | 1 2 2 2 2 2 3 4 5 6 7 8 9 0 { a b c _ _ ",
"d d d d d d e f g h h g f e d d d d e f i h j k l ~ ( m n o d d d d d d d d e f g h h g f e d d d d e f i h j k l ~ ( m n o d d ",
"p p p p p p q r s j j s r q p p p p q r s j t u v w % x y z p p p p p p p p q r s j j s r q p p p p q r s j t u v w % x y z p p ",
"A A A A A A q B s j j s B q A A A A q B s j t C v ~ % D y z p p A A A A A A q B s j j s B q A A A A q B s j t C v ~ % D y z p p ",
"E E E E E E E F G H H G F E E E E E E F G H t C v ~ % D y z p d I E E E E E E F G H H G F E E E E E E F G H t C v ~ % D y z p p ",
"J J J J J J J J K K K K J J J J J J J J K K t C v ~ % D y z A r L t J J J J J J K K K K J J J J J J J J K K t C v ~ % D y z p p ",
"K K K K K K K K K K K K K K K K K K K K K K t C v ~ % D y z A M N j K K K K K K K K K K K K K K K K K K K K t C v ~ % D y z p p ",
"O O O O O O O O O O O O O O O O O O O O O O J P v Q R x I S z B T K O O O O O O O O O O O O O O O O O O O O J P v Q R x I S q q ",
"U U U U U U U U U U U U U U U U U U U U U U V W X Y Z `  ...+.@.#.$.U U U U U U U U U U U U U U U U U U U U V W X Y Z `  ...%.%.",
"&.&.&.&.&.&.&.&.&.&.&.&.&.&.&.&.&.&.&.&.&.&.*.=.-.;.;.>.7 ,.'.'.).&.&.&.&.&.&.&.&.&.&.&.&.&.&.&.&.&.&.&.&.&.*.=.-.;.;.>.7 ,.'.'.",
"7 7 7 7 7 7 7 7 7 7 7 7 7 7 7 7 7 7 7 7 7 7 7 !.-.~.~.-.{.7 ].].7 7 7 7 7 7 7 7 7 7 7 7 7 7 7 7 7 7 7 7 7 7 7 !.-.~.~.-.{.7 ].].",
"^.^.^.^.^.^.^.^.^.^.^.^.^.^.^.^.^.^.^.^.^.7 /.!.-.~.~.-.!./.7 ^.^.^.^.^.^.^.^.^.^.^.^.^.^.^.^.^.^.^.^.^.^.7 /.!.-.~.~.-.!./.7 7 ",
"(.(.(.(.(.(.(.(.(.(.(.(.(.(.(.(.(.(.(._.:.<.<.[.}.|.|.}.[.<.<.:._.(.(.(.(.(.(.(.(.(.(.(.(.(.(.(.(.(.(._.:.<.<.[.}.|.|.}.[.<.1.1.",
"2.2.2.2.2.2.2.2.2.2.2.2.2.2.2.2.2.2.3.4.5.6.7.8.# # # # 8.7.6.5.4.3.2.2.2.2.2.2.2.2.2.2.2.2.2.2.2.2.3.4.5.6.7.8.# # # # 8.7.7.7.",
"                                    9.0.@ # # # # # # # # # # @ 0.9.                                9.0.@ # # # # # # # # # # # ",
"$ $ $ $ $ $ ( a.Q ~ ~ { ]     ^ / ( % b.c.> , , , , , > ; - = * & % $ $ $ $ ( a.Q ~ ~ { ]     ^ / ( % b.c.> , , , , , > ; - - - ",
"_ _ _ _ _ _ : d.e.6 7 8 9 0 { a b c _ c f.2 2 2 2 2 2 1 | } } [ < : _ _ _ _ : d.e.6 7 8 9 0 { a b c _ c f.2 2 2 2 2 2 1 | } } } ",
"d d d d d d e f i h j k l ~ ( m n o d d d d d d d d e f g h h g f e d d d d e f i h j k l ~ ( m n o d d d d d d d d e f g h g.g.",
"p p p p p p q r s j t u v w % x y z p p p p p p p p q r s j j s r q p p p p q r s j t u v w % x y z p p p p p p p p q r s j K K ",
"A A A A A A q B s j t C v ~ % D y z p p A A A A A A q B s j j s B q A A A A q B s j t C v ~ % D y z p p A A A A A A q B s j K K ",
"E E E E E E E F G H t C v ~ % D y z p d I E E E E E E F G H H G F E E E E E E F G H t C v ~ % D y z p d I E E E E E E F G H K K ",
"J J J J J J J J K K t C v ~ % D y z A r L t J J J J J J K K K K J J J J J J J J K K t C v ~ % D y z A r L t J J J J J J K K K K ",
"K K K K K K K K K K t C v ~ % D y z A M N j K K K K K K K K K K K K K K K K K K K K t C v ~ % D y z A M N j K K K K K K K K K K ",
"O O O O O O O O O O J P v Q R x I S z B T K O O O O O O O O O O O O O O O O O O O O J P v Q R x I S z B T K O O O O O O O O O O ",
"U U U U U U U U U U V W X Y Z `  ...+.@.#.$.U U U U U U U U U U U U U U U U U U U U V W X Y Z `  ...+.@.#.$.U U U U U U U U U U ",
"&.&.&.&.&.&.&.&.&.&.*.=.-.;.;.>.7 ,.'.'.).&.&.&.&.&.&.&.&.&.&.&.&.&.&.&.&.&.&.&.&.&.*.=.-.;.;.>.7 ,.'.'.).&.&.&.&.&.&.&.&.&.&.&.",
"7 7 7 7 7 7 7 7 7 7 7 !.-.~.~.-.{.7 ].].7 7 7 7 7 7 7 7 7 7 7 7 7 7 7 7 7 7 7 7 7 7 7 !.-.~.~.-.{.7 ].].7 7 7 7 7 7 7 7 7 7 7 7 ",
"^.^.^.^.^.^.^.^.^.7 /.!.-.~.~.-.!./.7 ^.^.^.^.^.^.^.^.^.^.^.^.^.^.^.^.^.^.^.^.^.^.7 /.!.-.~.~.-.!./.7 ^.^.^.^.^.^.^.^.^.^.^.^.^.",
"(.(.(.(.(.(.(._.:.<.<.[.}.|.|.}.[.<.<.:._.(.(.(.(.(.(.(.(.(.(.(.(.(.(.(.(.(.(._.:.<.<.[.}.|.|.}.[.<.<.:._.(.(.(.(.(.(.(.(.(.(.(.",
"2.2.2.2.2.2.3.4.5.6.7.8.# # # # 8.7.6.5.4.3.2.2.2.2.2.2.2.2.2.2.2.2.2.2.2.2.3.4.5.6.7.8.# # # # 8.7.6.5.4.3.2.2.2.2.2.2.2.2.2.2."};
